<svg xmlns="http://www.w3.org/2000/svg" width="24" height="24" viewBox="0 0 24 24" fill="none">
  <path d="M19.8666 11.2083L12.2082 18.8667C11.27 19.8049 9.99757 20.332 8.67075 20.332C7.34393 20.332 6.07145 19.8049 5.13325 18.8667C4.19505 17.9285 3.66797 16.656 3.66797 15.3292C3.66797 14.0024 4.19505 12.7299 5.13325 11.7917L12.7916 4.13335C13.4171 3.50788 14.2654 3.15649 15.1499 3.15649C16.0345 3.15649 16.8828 3.50788 17.5082 4.13335C18.1337 4.75882 18.4851 5.60713 18.4851 6.49168C18.4851 7.37623 18.1337 8.22455 17.5082 8.85001L9.84158 16.5083C9.52885 16.8211 9.10469 16.9968 8.66242 16.9968C8.22014 16.9968 7.79598 16.8211 7.48325 16.5083C7.17051 16.1956 6.99482 15.7715 6.99482 15.3292C6.99482 14.8869 7.17051 14.4627 7.48325 14.15L14.5582 7.08335" stroke="stroke" stroke-width="1.25" stroke-linecap="round" stroke-linejoin="round"/>
</svg>