<svg width="24" height="24" viewBox="0 0 24 24" fill="none" xmlns="http://www.w3.org/2000/svg">
<path d="M17 8.66675C17 7.34067 16.4732 6.0689 15.5355 5.13121C14.5979 4.19353 13.3261 3.66675 12 3.66675C10.6739 3.66675 9.40215 4.19353 8.46447 5.13121C7.52678 6.0689 7 7.34067 7 8.66675C7 14.5001 4.5 16.1667 4.5 16.1667H19.5C19.5 16.1667 17 14.5001 17 8.66675Z" stroke="stroke" stroke-width="1.25" stroke-linecap="round" stroke-linejoin="round"/>
<path d="M13.4419 19.5C13.2954 19.7526 13.0851 19.9622 12.8321 20.1079C12.5791 20.2537 12.2922 20.3304 12.0003 20.3304C11.7083 20.3304 11.4214 20.2537 11.1684 20.1079C10.9154 19.9622 10.7051 19.7526 10.5586 19.5" stroke="stroke" stroke-width="1.25" stroke-linecap="round" stroke-linejoin="round"/>
</svg>
