<svg width="154" height="57" viewBox="0 0 154 57" fill="none" xmlns="http://www.w3.org/2000/svg">
<path d="M13.2933 30.8933C12.44 36.7956 12.5822 41.0622 13.72 43.6933C15 46.5378 17.6311 47.96 21.6133 47.96C23.3911 47.96 25.0267 47.7111 26.52 47.2133C28.0844 46.7156 29.2578 46.36 30.04 46.1467C30.1111 47.4267 30.1467 48.7067 30.1467 49.9867C30.1467 51.2667 30.2178 52.5467 30.36 53.8267C28.5822 54.5378 26.5911 55.1067 24.3867 55.5333C22.1822 55.96 20.2978 56.1733 18.7333 56.1733C12.12 56.1733 7.46222 54.1111 4.76 49.9867C2.12889 45.8622 1.41778 39.4978 2.62667 30.8933C3.83556 22.2178 6.36 15.8533 10.2 11.8C14.04 7.74667 19.2667 5.72 25.88 5.72C28.0844 5.72 30.0756 5.93333 31.8533 6.36C33.6311 6.78667 34.8044 7.14222 35.3733 7.42667C36.0133 7.71111 36.4756 7.88889 36.76 7.96L34.3067 15.64C33.5244 15.4267 32.4222 15.0711 31 14.5733C29.6489 14.0756 28.1556 13.8267 26.52 13.8267C22.2533 13.8267 19.16 15.2489 17.24 18.0933C15.32 20.8667 14.0044 25.1333 13.2933 30.8933Z" fill="#0064FF"/>
<path d="M55.7256 48.7067C57.859 48.7067 59.5301 47.7111 60.739 45.72C62.019 43.7289 62.9434 40.5289 63.5123 36.12C64.1523 31.64 64.1167 28.44 63.4056 26.52C62.6945 24.6 61.3078 23.64 59.2456 23.64C57.1834 23.64 55.5478 24.6 54.339 26.52C53.1301 28.44 52.2056 31.64 51.5656 36.12C50.9967 40.6 51.0323 43.8356 51.6723 45.8267C52.3123 47.7467 53.6634 48.7067 55.7256 48.7067ZM73.9656 27.0533C74.3923 29.5422 74.3212 32.5644 73.7523 36.12C73.2545 39.6756 72.4367 42.6978 71.299 45.1867C70.2323 47.6756 68.8812 49.7378 67.2456 51.3733C64.1878 54.4311 60.0278 55.96 54.7656 55.96C46.9434 55.96 42.4278 52.3689 41.219 45.1867C40.7923 42.6978 40.8634 39.64 41.4323 36.0133C42.2145 29.3289 44.3834 24.3156 47.939 20.9733C51.139 17.9156 55.2278 16.3867 60.2056 16.3867C68.1701 16.3867 72.7567 19.9422 73.9656 27.0533ZM86.749 55H76.829L84.189 2.09333L94.3223 0.706668L86.749 55ZM107.452 55H97.5321L104.892 2.09333L115.025 0.706668L107.452 55ZM142.662 24.3867C141.382 24.2444 139.711 24.1733 137.649 24.1733C135.586 24.1733 133.844 25.0267 132.422 26.7333C131.071 28.44 130.075 31.5333 129.435 36.0133C128.866 40.4222 128.902 43.4444 129.542 45.08C130.253 46.7156 131.604 47.5333 133.595 47.5333C134.804 47.5333 135.977 47.1778 137.115 46.4667C138.324 45.6844 139.284 44.8667 139.995 44.0133L142.662 24.3867ZM139.995 50.52C135.942 54.1467 131.995 55.96 128.155 55.96C122.609 55.96 119.444 52.5111 118.662 45.6133C118.377 43.1956 118.484 40.2089 118.982 36.6533C119.48 33.0267 120.333 29.9333 121.542 27.3733C122.751 24.8133 124.173 22.7156 125.809 21.08C128.866 18.0933 132.671 16.6 137.222 16.6C142.626 16.6 148.066 17.1333 153.542 18.2L148.315 55H139.995V50.52Z" fill="black"/>
</svg>
