<svg width="24" height="24" viewBox="0 0 24 24" fill="none" xmlns="http://www.w3.org/2000/svg">
<path d="M16.9497 16.95C15.5252 18.0358 13.7906 18.6374 11.9997 18.6667C6.16634 18.6667 2.83301 12 2.83301 12C3.86958 10.0682 5.30729 8.38051 7.04967 7.05M10.2497 5.53333C10.8233 5.39907 11.4106 5.33195 11.9997 5.33333C17.833 5.33333 21.1663 12 21.1663 12C20.6605 12.9463 20.0572 13.8373 19.3663 14.6583M13.7663 13.7667C13.5375 14.0123 13.2615 14.2093 12.9548 14.3459C12.6481 14.4826 12.3171 14.556 11.9814 14.562C11.6457 14.5679 11.3123 14.5061 11.001 14.3804C10.6897 14.2547 10.4069 14.0675 10.1695 13.8301C9.93215 13.5927 9.745 13.31 9.61926 12.9987C9.49353 12.6874 9.43178 12.3539 9.4377 12.0183C9.44362 11.6826 9.5171 11.3515 9.65374 11.0449C9.79038 10.7382 9.98738 10.4622 10.233 10.2333" stroke="stroke" stroke-width="1.25" stroke-linecap="round" stroke-linejoin="round"/>
<path d="M2.83301 2.83333L21.1663 21.1667" stroke="stroke" stroke-width="1.25" stroke-linecap="round" stroke-linejoin="round"/>
</svg>