<svg width="392" height="40" viewBox="0 0 392 40" fill="none" xmlns="http://www.w3.org/2000/svg">
<path d="M6 0.5H386C389.038 0.5 391.5 2.96243 391.5 6V34C391.5 37.0376 389.038 39.5 386 39.5H6C2.96243 39.5 0.5 37.0376 0.5 34V6C0.5 2.96243 2.96243 0.5 6 0.5Z" fill="white"/>
<path d="M6 0.5H386C389.038 0.5 391.5 2.96243 391.5 6V34C391.5 37.0376 389.038 39.5 386 39.5H6C2.96243 39.5 0.5 37.0376 0.5 34V6C0.5 2.96243 2.96243 0.5 6 0.5Z" stroke="#D9D9D9"/>
<path d="M146.98 20.1771C146.98 19.6246 146.93 19.0934 146.838 18.5834H139.5V21.6009H143.693C143.509 22.5713 142.957 23.393 142.128 23.9455V25.9075H144.657C146.13 24.5475 146.98 22.55 146.98 20.1771Z" fill="#4285F4"/>
<path d="M139.5 27.7917C141.604 27.7917 143.368 27.0975 144.657 25.9075L142.128 23.9455C141.434 24.413 140.548 24.6963 139.5 24.6963C137.474 24.6963 135.753 23.3292 135.137 21.4875H132.544V23.4992C133.826 26.0421 136.454 27.7917 139.5 27.7917Z" fill="#34A853"/>
<path d="M135.137 21.4804C134.981 21.0129 134.889 20.5171 134.889 20C134.889 19.4829 134.981 18.9871 135.137 18.5196V16.5079H132.544C132.013 17.5563 131.708 18.7392 131.708 20C131.708 21.2609 132.013 22.4438 132.544 23.4921L134.563 21.9196L135.137 21.4804Z" fill="#FBBC05"/>
<path d="M139.5 15.3109C140.648 15.3109 141.668 15.7075 142.482 16.4725L144.713 14.2413C143.36 12.9805 141.604 12.2084 139.5 12.2084C136.454 12.2084 133.826 13.958 132.544 16.508L135.137 18.5196C135.753 16.678 137.474 15.3109 139.5 15.3109Z" fill="#EA4335"/>
<path d="M170.498 14.2461V15.3125C170.498 16.4678 170.498 17.7188 170.156 19.4688H171.961V20.3574H166.943V25.6348H165.863V20.3574H160.887V19.4688H169.062C169.432 17.7188 169.432 16.4404 169.432 15.3125V15.1348H162.281V14.2461H170.498ZM182.652 13.9863V14.7656C182.652 15.5928 182.652 16.6318 182.379 18.0059H184.115V18.8672H172.986V18.0059H181.299C181.572 16.6523 181.586 15.6543 181.586 14.8613H174.395V13.9863H182.652ZM182.693 20.0977V23.1602H175.406V24.5957H183.008V25.4707H174.326V22.3125H181.627V20.959H174.312V20.0977H182.693ZM196.215 23.2012V24.1035H185.086V23.2012H190.09V20.9043H186.48V17.1582H193.754V15.2441H186.453V14.3555H194.807V18.0332H187.547V20.0156H195.094V20.9043H191.143V23.2012H196.215ZM205.02 16.7207C205.006 18.9355 206.523 21.1777 208.314 21.9844L207.658 22.832C206.277 22.1553 205.081 20.7266 204.5 18.9902C203.933 20.8291 202.736 22.3604 201.314 23.0781L200.631 22.1758C202.436 21.3418 203.939 19.0312 203.953 16.7207V14.5059H205.02V16.7207ZM210.721 13.4531V25.6348H209.641V13.4531H210.721ZM216.914 15.709C216.914 17.3223 218.104 18.7988 219.908 19.4277L219.361 20.2617C217.974 19.7695 216.914 18.7715 216.395 17.5137C215.875 18.8945 214.761 19.9678 213.332 20.4941L212.758 19.6602C214.576 19.0176 215.848 17.4453 215.861 15.709V15.1895H213.086V14.3145H219.648V15.1895H216.914V15.709ZM222.301 13.4531V16.666H224.133V17.582H222.301V20.7812H221.234V13.4531H222.301ZM222.301 21.4238V25.6074H221.234V22.2988H214.344V21.4238H222.301ZM234.305 13.4531V18.4707H236.342V19.3594H234.305V25.6074H233.238V13.4531H234.305ZM232.062 15.4082V16.2969H224.83V15.4082H227.961V13.6035H229.027V15.4082H232.062ZM228.508 17.3086C230.23 17.3086 231.475 18.457 231.488 20.0977C231.475 21.7383 230.23 22.8867 228.508 22.8867C226.771 22.8867 225.514 21.7383 225.527 20.0977C225.514 18.457 226.771 17.3086 228.508 17.3086ZM228.508 18.2109C227.373 18.2109 226.539 19.0039 226.553 20.0977C226.539 21.2051 227.373 21.9844 228.508 21.9707C229.629 21.9844 230.449 21.2051 230.463 20.0977C230.449 19.0039 229.629 18.2109 228.508 18.2109ZM247.047 13.4531V25.6074H245.967V13.4531H247.047ZM243.451 14.7793C243.438 18.2793 241.811 21.3691 237.736 23.3242L237.148 22.4492C240.437 20.8906 242.111 18.5596 242.357 15.6543H237.709V14.7793H243.451Z" fill="#6F6F6F"/>
</svg>
