<svg width="392" height="44" viewBox="0 0 392 44" fill="none" xmlns="http://www.w3.org/2000/svg">
<path d="M6 0.5H386C389.038 0.5 391.5 2.96243 391.5 6V38C391.5 41.0376 389.038 43.5 386 43.5H6C2.96243 43.5 0.5 41.0376 0.5 38V6C0.5 2.96243 2.96243 0.5 6 0.5Z" fill="white"/>
<path d="M6 0.5H386C389.038 0.5 391.5 2.96243 391.5 6V38C391.5 41.0376 389.038 43.5 386 43.5H6C2.96243 43.5 0.5 41.0376 0.5 38V6C0.5 2.96243 2.96243 0.5 6 0.5Z" stroke="#D9D9D9"/>
<path d="M146.98 22.1771C146.98 21.6246 146.93 21.0934 146.838 20.5834H139.5V23.6009H143.693C143.509 24.5713 142.957 25.393 142.128 25.9455V27.9075H144.657C146.13 26.5475 146.98 24.55 146.98 22.1771Z" fill="#4285F4"/>
<path d="M139.5 29.7917C141.604 29.7917 143.368 29.0975 144.657 27.9075L142.128 25.9455C141.434 26.413 140.548 26.6963 139.5 26.6963C137.474 26.6963 135.753 25.3292 135.137 23.4875H132.544V25.4992C133.826 28.0421 136.454 29.7917 139.5 29.7917Z" fill="#34A853"/>
<path d="M135.137 23.4804C134.981 23.0129 134.889 22.5171 134.889 22C134.889 21.4829 134.981 20.9871 135.137 20.5196V18.5079H132.544C132.013 19.5563 131.708 20.7392 131.708 22C131.708 23.2609 132.013 24.4438 132.544 25.4921L134.563 23.9196L135.137 23.4804Z" fill="#FBBC05"/>
<path d="M139.5 17.3109C140.648 17.3109 141.668 17.7075 142.482 18.4725L144.713 16.2413C143.36 14.9805 141.604 14.2084 139.5 14.2084C136.454 14.2084 133.826 15.958 132.544 18.508L135.137 20.5196C135.753 18.678 137.474 17.3109 139.5 17.3109Z" fill="#EA4335"/>
<path d="M170.642 16.1777V17.2578C170.642 18.4199 170.642 19.6777 170.3 21.4277H172.063V22.4941H167.101V27.6758H165.788V22.4941H160.894V21.4277H168.987C169.356 19.6846 169.356 18.3994 169.356 17.2578V17.2441H162.261V16.1777H170.642ZM182.782 15.9316V16.7383C182.782 17.5518 182.782 18.5771 182.522 19.9102H184.204V20.9492H172.993V19.9102H181.224C181.47 18.666 181.497 17.7295 181.497 16.9707H174.401V15.9316H182.782ZM182.796 22.043V25.2559H175.618V26.5H183.11V27.5391H174.319V24.2578H181.511V23.082H174.306V22.043H182.796ZM196.304 25.1055V26.1992H185.093V25.1055H190.028V22.959H186.46V19.0625H193.651V17.3398H186.433V16.2734H194.937V20.1016H187.745V21.8926H195.224V22.959H191.313V25.1055H196.304ZM205.108 18.5293C205.095 20.7715 206.448 23.0137 208.349 23.8613L207.569 24.8867C206.161 24.2168 205.047 22.8428 204.479 21.168C203.905 22.959 202.777 24.4424 201.308 25.1602L200.515 24.0664C202.442 23.2051 203.796 20.8672 203.796 18.5293V16.4375H205.108V18.5293ZM210.755 15.4121V27.6895H209.456V15.4121H210.755ZM216.989 17.6133C216.989 19.1719 218.069 20.6621 219.942 21.291L219.286 22.3027C217.898 21.8242 216.88 20.8672 216.347 19.6641C215.813 20.9902 214.754 22.0293 213.312 22.5352L212.614 21.5234C214.528 20.8672 215.677 19.2949 215.69 17.5996V17.2715H212.997V16.2188H219.628V17.2715H216.989V17.6133ZM222.335 15.4121V18.5566H224.112V19.6504H222.335V22.7949H221.036V15.4121H222.335ZM222.335 23.3965V27.6621H221.036V24.4492H214.241V23.3965H222.335ZM234.353 15.4121V20.375H236.321V21.4551H234.353V27.6621H233.067V15.4121H234.353ZM232.001 17.3262V18.3926H224.741V17.3262H227.763V15.5762H229.062V17.3262H232.001ZM228.419 19.2949C230.169 19.2949 231.454 20.4707 231.468 22.1387C231.454 23.8203 230.169 24.9824 228.419 24.9961C226.655 24.9824 225.37 23.8203 225.37 22.1387C225.37 20.4707 226.655 19.2949 228.419 19.2949ZM228.419 20.3613C227.38 20.3613 226.601 21.0859 226.614 22.1387C226.601 23.2051 227.38 23.916 228.419 23.9023C229.458 23.916 230.224 23.2051 230.224 22.1387C230.224 21.0859 229.458 20.3613 228.419 20.3613ZM247.095 15.4121V27.6621H245.782V15.4121H247.095ZM243.444 16.7246C243.444 20.3066 241.913 23.4238 237.716 25.4336L237.032 24.3809C240.293 22.8291 241.879 20.6211 242.132 17.7637H237.62V16.7246H243.444Z" fill="#6F6F6F"/>
</svg>
