<svg width="392" height="48" viewBox="0 0 392 48" fill="none" xmlns="http://www.w3.org/2000/svg">
<path d="M0.5 6C0.5 2.96243 2.96243 0.5 6 0.5H386C389.038 0.5 391.5 2.96243 391.5 6V42C391.5 45.0376 389.038 47.5 386 47.5H6C2.96243 47.5 0.5 45.0376 0.5 42V6Z" fill="white"/>
<path d="M0.5 6C0.5 2.96243 2.96243 0.5 6 0.5H386C389.038 0.5 391.5 2.96243 391.5 6V42C391.5 45.0376 389.038 47.5 386 47.5H6C2.96243 47.5 0.5 45.0376 0.5 42V6Z" stroke="#D9D9D9"/>
<path d="M137.95 24.2353C137.95 23.5012 137.887 22.7953 137.771 22.1177H128.5V26.1271H133.798C133.565 27.4165 132.867 28.5083 131.82 29.2424V31.8494H135.015C136.876 30.0424 137.95 27.3883 137.95 24.2353Z" fill="#4285F4"/>
<path d="M128.5 34.353C131.158 34.353 133.386 33.4307 135.015 31.8495L131.82 29.2424C130.943 29.8636 129.824 30.2401 128.5 30.2401C125.941 30.2401 123.766 28.4236 122.988 25.9766H119.713V28.6495C121.332 32.0283 124.652 34.353 128.5 34.353Z" fill="#34A853"/>
<path d="M122.988 25.9672C122.791 25.346 122.675 24.6872 122.675 24.0001C122.675 23.313 122.791 22.6542 122.988 22.033V19.3601H119.713C119.041 20.753 118.657 22.3248 118.657 24.0001C118.657 25.6754 119.041 27.2472 119.713 28.6401L122.263 26.5507L122.988 25.9672Z" fill="#FBBC05"/>
<path d="M128.5 17.7694C129.95 17.7694 131.238 18.2965 132.267 19.313L135.086 16.3483C133.377 14.673 131.158 13.6471 128.5 13.6471C124.652 13.6471 121.332 15.9718 119.713 19.36L122.988 22.033C123.766 19.5859 125.941 17.7694 128.5 17.7694Z" fill="#EA4335"/>
<path d="M163.324 16.68C163.324 18.984 163.198 21.36 162.748 23.574H165.124V24.852H158.806V31.26H157.204V24.852H150.922V23.574H161.182C161.578 21.972 161.704 19.704 161.704 17.994H152.56V16.68H163.324ZM179.618 31.044H168.242V27.03H177.26V25.554H168.134V24.258H178.862V28.2H169.844V29.766H179.618V31.044ZM179.042 16.338C179.042 18.552 178.862 20.028 178.538 21.414H180.698V22.71H166.496V21.414H176.954C177.242 20.388 177.422 19.11 177.422 17.634H168.188V16.338H179.042ZM196.273 29.262H182.071V27.966H188.335V25.482H183.781V20.424H192.925V18.12H183.745V16.824H194.509V21.72H185.365V24.186H194.941V25.482H189.937V27.966H196.273V29.262ZM215.387 31.26H213.803V15.528H215.387V31.26ZM211.931 26.292L210.977 27.48C209.573 26.508 207.755 24.636 207.179 22.8C206.621 24.726 205.073 26.724 203.291 27.894L202.301 26.724C204.659 25.23 206.333 22.494 206.333 19.596V16.914H207.989V19.524C207.989 22.476 209.753 25.032 211.931 26.292ZM218.074 17.922V16.608H226.66V17.922H223.222V18.354C223.222 20.586 225.112 22.332 226.894 22.872L226.012 24.15C224.608 23.592 223.078 22.242 222.43 20.802C221.908 22.314 220.216 23.916 218.596 24.582L217.66 23.34C219.694 22.602 221.602 20.586 221.602 18.39V17.922H218.074ZM219.91 25.626H230.098V31.278H228.514V26.94H219.91V25.626ZM232.438 21.018H230.098V24.798H228.496V15.528H230.098V19.686H232.438V21.018ZM248.174 23.412H245.672V31.26H244.07V15.528H245.672V22.08H248.174V23.412ZM240.47 17.85H235.772V16.554H240.47V17.85ZM242.756 20.55H233.432V19.272H242.756V20.55ZM241.874 24.762C241.874 26.616 240.398 28.056 238.166 28.056C235.934 28.056 234.44 26.652 234.44 24.762C234.44 22.908 235.934 21.432 238.166 21.432C240.398 21.432 241.874 22.872 241.874 24.762ZM240.308 24.762C240.308 23.592 239.39 22.764 238.166 22.764C236.942 22.764 236.042 23.592 236.042 24.762C236.042 25.914 236.924 26.724 238.166 26.724C239.462 26.724 240.308 25.914 240.308 24.762ZM262.002 31.26H260.4V15.528H262.002V31.26ZM257.394 17.202C257.304 22.206 254.388 25.878 250.086 28.218L249.114 27.012C252.822 25.23 255.378 21.936 255.666 18.552H249.816V17.202H257.394Z" fill="#6F6F6F"/>
</svg>
