<svg width="24" height="25" viewBox="0 0 24 25" fill="none" xmlns="http://www.w3.org/2000/svg">
<path fill-rule="evenodd" clip-rule="evenodd" d="M12.0003 4.39893C7.74313 4.39893 4.29199 7.85006 4.29199 12.1073C4.29199 16.3645 7.74313 19.8156 12.0003 19.8156C16.2575 19.8156 19.7087 16.3645 19.7087 12.1073C19.7087 7.85006 16.2575 4.39893 12.0003 4.39893ZM3.04199 12.1073C3.04199 7.15971 7.05277 3.14893 12.0003 3.14893C16.9479 3.14893 20.9587 7.15971 20.9587 12.1073C20.9587 17.0548 16.9479 21.0656 12.0003 21.0656C7.05277 21.0656 3.04199 17.0548 3.04199 12.1073ZM12.2505 8.58885C11.8141 8.51399 11.3653 8.59601 10.9835 8.82037C10.6017 9.04472 10.3117 9.39695 10.1648 9.81466C10.0502 10.1403 9.69341 10.3114 9.36779 10.1968C9.04217 10.0823 8.87107 9.72547 8.98561 9.39985C9.23051 8.70367 9.71389 8.11663 10.3501 7.7427C10.9864 7.36877 11.7345 7.23208 12.4618 7.35684C13.1892 7.48161 13.849 7.85977 14.3242 8.42436C14.7994 8.98888 15.0596 9.70335 15.0585 10.4413C15.0582 11.606 14.1928 12.3939 13.5302 12.8356C13.1798 13.0692 12.8339 13.2417 12.578 13.3555C12.4492 13.4127 12.3409 13.4561 12.2634 13.4856C12.2247 13.5004 12.1934 13.5117 12.171 13.5197L12.1441 13.5291L12.1358 13.532L12.133 13.5329L12.132 13.5332L12.1315 13.5334C12.1314 13.5335 12.1312 13.5335 11.9438 12.9713L12.1312 13.5335C11.8037 13.6427 11.4498 13.4657 11.3406 13.1382C11.2316 12.8111 11.4081 12.4575 11.7349 12.348L11.7349 12.348L11.7353 12.3479L11.7356 12.3478L11.7359 12.3477L11.7373 12.3472L11.7522 12.3419C11.7664 12.3369 11.7889 12.3287 11.8185 12.3175C11.8777 12.2949 11.9648 12.2601 12.0703 12.2132C12.2832 12.1186 12.5622 11.9786 12.8368 11.7956C13.4241 11.4041 13.8085 10.9421 13.8085 10.4406V10.4397C13.8092 9.99686 13.6531 9.56812 13.368 9.22936C13.0828 8.89061 12.6869 8.66371 12.2505 8.58885ZM15.0585 10.4413V10.4406H14.4335L15.0585 10.4415L15.0585 10.4413ZM12 15.6489C11.6548 15.6489 11.375 15.9287 11.375 16.2739C11.375 16.6191 11.6548 16.8989 12 16.8989H12.0083C12.3535 16.8989 12.6333 16.6191 12.6333 16.2739C12.6333 15.9287 12.3535 15.6489 12.0083 15.6489H12Z" fill="#4B5563"/>
</svg>
