<svg width="24" height="24" viewBox="0 0 24 24" fill="none" xmlns="http://www.w3.org/2000/svg">
<path d="M12.0003 20.3332C16.6027 20.3332 20.3337 16.6022 20.3337 11.9998C20.3337 7.39746 16.6027 3.6665 12.0003 3.6665C7.39795 3.6665 3.66699 7.39746 3.66699 11.9998C3.66699 16.6022 7.39795 20.3332 12.0003 20.3332Z" stroke="stroke" stroke-width="1.25" stroke-linecap="round" stroke-linejoin="round"/>
<path d="M9.5752 9.49999C9.77112 8.94304 10.1578 8.47341 10.6668 8.17426C11.1758 7.87512 11.7743 7.76577 12.3562 7.86558C12.9381 7.96539 13.4659 8.26792 13.8461 8.71959C14.2263 9.17126 14.4344 9.74292 14.4335 10.3333C14.4335 12 11.9335 12.8333 11.9335 12.8333" stroke="stroke" stroke-width="1.25" stroke-linecap="round" stroke-linejoin="round"/>
<path d="M12 16.1665H12.0083" stroke="stroke" stroke-width="1.25" stroke-linecap="round" stroke-linejoin="round"/>
</svg>
