<svg width="24" height="24" viewBox="0 0 24 24" fill="none" xmlns="http://www.w3.org/2000/svg">
<path fill-rule="evenodd" clip-rule="evenodd" d="M12.3837 3.17328C12.158 2.99774 11.842 2.99774 11.6163 3.17328L4.11629 9.00661C3.96405 9.12502 3.875 9.30709 3.875 9.49996V18.6666C3.875 19.2744 4.11644 19.8573 4.54621 20.2871C4.97598 20.7168 5.55888 20.9583 6.16667 20.9583H9.49651C9.49767 20.9583 9.49884 20.9583 9.5 20.9583C9.50116 20.9583 9.50233 20.9583 9.50349 20.9583H14.4965C14.4977 20.9583 14.4988 20.9583 14.5 20.9583C14.5012 20.9583 14.5023 20.9583 14.5035 20.9583H17.8333C18.4411 20.9583 19.024 20.7168 19.4538 20.2871C19.8836 19.8573 20.125 19.2744 20.125 18.6666V9.49996C20.125 9.30709 20.036 9.12502 19.8837 9.00661L12.3837 3.17328ZM15.125 19.7083H17.8333C18.1096 19.7083 18.3746 19.5985 18.5699 19.4032C18.7653 19.2078 18.875 18.9429 18.875 18.6666V9.80564L12 4.45841L5.125 9.80564V18.6666C5.125 18.9429 5.23475 19.2078 5.4301 19.4032C5.62545 19.5985 5.8904 19.7083 6.16667 19.7083H8.875V12C8.875 11.6548 9.15482 11.375 9.5 11.375H14.5C14.8452 11.375 15.125 11.6548 15.125 12V19.7083ZM10.125 19.7083H13.875V12.625H10.125V19.7083Z" fill="currentColor"/>
</svg>