<svg width="24" height="24" viewBox="0 0 24 24" fill="none" xmlns="http://www.w3.org/2000/svg">
<path d="M17.8333 4.5H6.16667C5.24619 4.5 4.5 5.24619 4.5 6.16667V17.8333C4.5 18.7538 5.24619 19.5 6.16667 19.5H17.8333C18.7538 19.5 19.5 18.7538 19.5 17.8333V6.16667C19.5 5.24619 18.7538 4.5 17.8333 4.5Z" stroke="stroke" stroke-width="1.25" stroke-linecap="round" stroke-linejoin="round"/>
<path d="M9.08203 10.333C9.77239 10.333 10.332 9.77336 10.332 9.08301C10.332 8.39265 9.77239 7.83301 9.08203 7.83301C8.39168 7.83301 7.83203 8.39265 7.83203 9.08301C7.83203 9.77336 8.39168 10.333 9.08203 10.333Z" stroke="stroke" stroke-width="1.25" stroke-linecap="round" stroke-linejoin="round"/>
<path d="M19.5003 14.4997L15.3337 10.333L6.16699 19.4997" stroke="stroke" stroke-width="1.25" stroke-linecap="round" stroke-linejoin="round"/>
</svg>
