<svg width="24" height="24" viewBox="0 0 24 24" fill="none" xmlns="http://www.w3.org/2000/svg">
<path d="M12.0003 12.8333C12.4606 12.8333 12.8337 12.4602 12.8337 12C12.8337 11.5398 12.4606 11.1667 12.0003 11.1667C11.5401 11.1667 11.167 11.5398 11.167 12C11.167 12.4602 11.5401 12.8333 12.0003 12.8333Z" stroke="stroke" stroke-width="1.25" stroke-linecap="round" stroke-linejoin="round"/>
<path d="M12.0003 7.00001C12.4606 7.00001 12.8337 6.62691 12.8337 6.16668C12.8337 5.70644 12.4606 5.33334 12.0003 5.33334C11.5401 5.33334 11.167 5.70644 11.167 6.16668C11.167 6.62691 11.5401 7.00001 12.0003 7.00001Z" stroke="stroke" stroke-width="1.25" stroke-linecap="round" stroke-linejoin="round"/>
<path d="M12.0003 18.6667C12.4606 18.6667 12.8337 18.2936 12.8337 17.8333C12.8337 17.3731 12.4606 17 12.0003 17C11.5401 17 11.167 17.3731 11.167 17.8333C11.167 18.2936 11.5401 18.6667 12.0003 18.6667Z" stroke="stroke" stroke-width="1.25" stroke-linecap="round" stroke-linejoin="round"/>
</svg>