<svg width="24" height="24" viewBox="0 0 24 24" fill="none" xmlns="http://www.w3.org/2000/svg">
<path d="M19.5 11.5834C19.5029 12.6832 19.2459 13.7683 18.75 14.75C18.162 15.9265 17.2581 16.916 16.1395 17.6078C15.021 18.2995 13.7319 18.6662 12.4167 18.6667C11.3168 18.6696 10.2318 18.4126 9.25 17.9167L4.5 19.5L6.08333 14.75C5.58744 13.7683 5.33047 12.6832 5.33333 11.5834C5.33384 10.2682 5.70051 8.97907 6.39227 7.86048C7.08402 6.7419 8.07355 5.838 9.25 5.25002C10.2318 4.75413 11.3168 4.49716 12.4167 4.50002H12.8333C14.5703 4.59585 16.2109 5.32899 17.441 6.55907C18.671 7.78915 19.4042 9.42973 19.5 11.1667V11.5834Z" stroke="stroke" stroke-width="1.25" stroke-linecap="round" stroke-linejoin="round"/>
</svg>
