<svg width="24" height="24" viewBox="0 0 24 24" fill="none" xmlns="http://www.w3.org/2000/svg">
<path d="M12 2.8335C11.337 2.8335 10.7011 3.09689 10.2322 3.56573C9.76339 4.03457 9.5 4.67045 9.5 5.3335V12.0002C9.5 12.6632 9.76339 13.2991 10.2322 13.7679C10.7011 14.2368 11.337 14.5002 12 14.5002C12.663 14.5002 13.2989 14.2368 13.7678 13.7679C14.2366 13.2991 14.5 12.6632 14.5 12.0002V5.3335C14.5 4.67045 14.2366 4.03457 13.7678 3.56573C13.2989 3.09689 12.663 2.8335 12 2.8335Z" stroke="stroke" stroke-width="1.25" stroke-linecap="round" stroke-linejoin="round"/>
<path d="M17.8337 10.3335V12.0002C17.8337 13.5473 17.2191 15.031 16.1251 16.125C15.0312 17.2189 13.5474 17.8335 12.0003 17.8335C10.4532 17.8335 8.9695 17.2189 7.87554 16.125C6.78157 15.031 6.16699 13.5473 6.16699 12.0002V10.3335" stroke="stroke" stroke-width="1.25" stroke-linecap="round" stroke-linejoin="round"/>
<path d="M12 17.8335V21.1668" stroke="stroke" stroke-width="1.25" stroke-linecap="round" stroke-linejoin="round"/>
<path d="M8.66699 21.167H15.3337" stroke="stroke" stroke-width="1.25" stroke-linecap="round" stroke-linejoin="round"/>
</svg>
