<svg width="24" height="24" viewBox="0 0 24 24" fill="none" xmlns="http://www.w3.org/2000/svg" >
  <path d="M11.167 5.33333H5.33366C4.89163 5.33333 4.46771 5.50892 4.15515 5.82148C3.84259 6.13404 3.66699 6.55797 3.66699 6.99999V18.6667C3.66699 19.1087 3.84259 19.5326 4.15515 19.8452C4.46771 20.1577 4.89163 20.3333 5.33366 20.3333H17.0003C17.4424 20.3333 17.8663 20.1577 18.1788 19.8452C18.4914 19.5326 18.667 19.1087 18.667 18.6667V12.8333" stroke="stroke" stroke-width="1.25" stroke-linecap="round" stroke-linejoin="round"/>
  <path d="M17.417 4.08333C17.7485 3.75181 18.1982 3.56557 18.667 3.56557C19.1358 3.56557 19.5855 3.75181 19.917 4.08333C20.2485 4.41485 20.4348 4.86449 20.4348 5.33333C20.4348 5.80217 20.2485 6.25181 19.917 6.58333L12.0003 14.5L8.66699 15.3333L9.50033 12L17.417 4.08333Z" stroke="stroke" stroke-width="1.25" stroke-linecap="round" stroke-linejoin="round"/>
</svg>