<?xml version="1.0" encoding="UTF-8"?>
<svg xmlns="http://www.w3.org/2000/svg" xmlns:xlink="http://www.w3.org/1999/xlink" width="20px" height="24px" viewBox="0 0 20 23" version="1.1">
<g id="surface1">
<path style=" stroke:none;fill-rule:evenodd;fill:rgb(85.490197%,32.941177%,28.627452%);fill-opacity:1;" d="M 19.945312 7 L 12.695312 0 L 2.546875 0 C 1.140625 0 0 1.101562 0 2.460938 L 0 20.539062 C 0 21.898438 1.140625 23 2.546875 23 L 17.394531 23 C 18.804688 23 19.945312 21.898438 19.945312 20.539062 Z M 19.945312 7 "/>
<path style=" stroke:none;fill-rule:evenodd;fill:rgb(68.627453%,20%,15.294118%);fill-opacity:1;" d="M 19.953125 6.953125 L 14.40625 6.953125 C 13.488281 6.953125 12.742188 6.234375 12.742188 5.347656 L 12.742188 0 L 12.75 0 Z M 19.953125 6.953125 "/>
<path style=" stroke:none;fill-rule:nonzero;fill:rgb(100%,100%,100%);fill-opacity:1;" d="M 4.707031 14.015625 L 4.707031 10.230469 L 6.242188 10.230469 C 7.136719 10.230469 7.644531 10.757812 7.644531 11.507812 C 7.644531 12.265625 7.125 12.78125 6.222656 12.78125 L 5.519531 12.78125 L 5.519531 14.015625 Z M 5.519531 12.148438 L 6.09375 12.148438 C 6.574219 12.148438 6.804688 11.886719 6.804688 11.507812 C 6.804688 11.128906 6.574219 10.875 6.09375 10.875 L 5.519531 10.875 Z M 9.539062 14.015625 L 8.160156 14.015625 L 8.160156 10.230469 L 9.554688 10.230469 C 10.734375 10.230469 11.453125 10.941406 11.453125 12.117188 C 11.453125 13.304688 10.734375 14.015625 9.539062 14.015625 Z M 8.96875 13.339844 L 9.503906 13.339844 C 10.253906 13.339844 10.640625 12.964844 10.640625 12.117188 C 10.640625 11.277344 10.253906 10.90625 9.511719 10.90625 L 8.96875 10.90625 Z M 12.042969 14.015625 L 12.042969 10.230469 L 14.625 10.230469 L 14.625 10.878906 L 12.855469 10.878906 L 12.855469 11.800781 L 14.457031 11.800781 L 14.457031 12.445312 L 12.855469 12.445312 L 12.855469 14.015625 Z M 12.042969 14.015625 "/>
</g>
</svg>
