<svg width="24" height="25" viewBox="0 0 24 25" fill="none" xmlns="http://www.w3.org/2000/svg">
<path fill-rule="evenodd" clip-rule="evenodd" d="M6.16667 5.23242C5.59137 5.23242 5.125 5.69879 5.125 6.27409V17.9408C5.125 18.5161 5.59137 18.9824 6.16667 18.9824H17.8333C18.4086 18.9824 18.875 18.5161 18.875 17.9408V6.27409C18.875 5.69879 18.4086 5.23242 17.8333 5.23242H6.16667ZM3.875 6.27409C3.875 5.00844 4.90101 3.98242 6.16667 3.98242H17.8333C19.099 3.98242 20.125 5.00844 20.125 6.27409V17.9408C20.125 19.2064 19.099 20.2324 17.8333 20.2324H6.16667C4.90101 20.2324 3.875 19.2064 3.875 17.9408V6.27409ZM12 8.14911C12.3452 8.14911 12.625 8.42893 12.625 8.77411V11.4824H15.3337C15.6788 11.4824 15.9587 11.7622 15.9587 12.1074C15.9587 12.4526 15.6788 12.7324 15.3337 12.7324H12.625V15.4408C12.625 15.786 12.3452 16.0658 12 16.0658C11.6548 16.0658 11.375 15.786 11.375 15.4408V12.7324H8.66699C8.32181 12.7324 8.04199 12.4526 8.04199 12.1074C8.04199 11.7622 8.32181 11.4824 8.66699 11.4824H11.375V8.77411C11.375 8.42893 11.6548 8.14911 12 8.14911Z" fill="#4B5563"/>
</svg>
