<svg width="24" height="25" viewBox="0 0 24 25" fill="none" xmlns="http://www.w3.org/2000/svg">
<path d="M12 14.6077C13.3807 14.6077 14.5 13.4884 14.5 12.1077C14.5 10.727 13.3807 9.60767 12 9.60767C10.6193 9.60767 9.5 10.727 9.5 12.1077C9.5 13.4884 10.6193 14.6077 12 14.6077Z" stroke="stroke" stroke-width="1.25" stroke-linecap="round" stroke-linejoin="round"/>
<path d="M18.1666 14.6076C18.0557 14.8589 18.0226 15.1377 18.0716 15.4081C18.1206 15.6784 18.2495 15.9279 18.4416 16.1242L18.4916 16.1742C18.6465 16.329 18.7695 16.5129 18.8533 16.7152C18.9372 16.9175 18.9804 17.1344 18.9804 17.3534C18.9804 17.5724 18.9372 17.7893 18.8533 17.9917C18.7695 18.194 18.6465 18.3778 18.4916 18.5326C18.3368 18.6875 18.153 18.8105 17.9507 18.8943C17.7483 18.9782 17.5314 19.0214 17.3124 19.0214C17.0934 19.0214 16.8765 18.9782 16.6742 18.8943C16.4719 18.8105 16.288 18.6875 16.1332 18.5326L16.0833 18.4826C15.8869 18.2905 15.6374 18.1616 15.3671 18.1126C15.0967 18.0636 14.8179 18.0967 14.5666 18.2076C14.3201 18.3132 14.1099 18.4886 13.9618 18.7122C13.8138 18.9358 13.7343 19.1978 13.7333 19.4659V19.6076C13.7333 20.0496 13.5577 20.4735 13.2451 20.7861C12.9325 21.0987 12.5086 21.2742 12.0666 21.2742C11.6246 21.2742 11.2006 21.0987 10.8881 20.7861C10.5755 20.4735 10.3999 20.0496 10.3999 19.6076V19.5326C10.3935 19.2568 10.3042 18.9892 10.1437 18.7648C9.98317 18.5404 9.75886 18.3695 9.49992 18.2742C9.24857 18.1633 8.96976 18.1302 8.69943 18.1792C8.4291 18.2283 8.17965 18.3571 7.98325 18.5492L7.93325 18.5993C7.77846 18.7542 7.59465 18.8771 7.39232 18.961C7.18999 19.0449 6.97311 19.0881 6.75408 19.0881C6.53506 19.0881 6.31818 19.0449 6.11585 18.961C5.91352 18.8771 5.72971 18.7542 5.57492 18.5993C5.41996 18.4445 5.29703 18.2606 5.21315 18.0583C5.12928 17.856 5.08611 17.6391 5.08611 17.4201C5.08611 17.2011 5.12928 16.9842 5.21315 16.7818C5.29703 16.5795 5.41996 16.3957 5.57492 16.2409L5.62492 16.1909C5.81703 15.9945 5.94591 15.7451 5.99492 15.4747C6.04394 15.2044 6.01085 14.9256 5.89992 14.6743C5.79428 14.4278 5.61888 14.2176 5.39531 14.0695C5.17173 13.9214 4.90974 13.842 4.64159 13.8409H4.49992C4.05789 13.8409 3.63397 13.6653 3.32141 13.3528C3.00885 13.0402 2.83325 12.6163 2.83325 12.1743C2.83325 11.7322 3.00885 11.3083 3.32141 10.9957C3.63397 10.6832 4.05789 10.5076 4.49992 10.5076H4.57492C4.85075 10.5011 5.11826 10.4118 5.34267 10.2513C5.56708 10.0908 5.73801 9.86653 5.83325 9.60758C5.94418 9.35624 5.97727 9.07742 5.92826 8.80709C5.87924 8.53676 5.75037 8.28732 5.55825 8.09092L5.50825 8.04092C5.35329 7.88613 5.23036 7.70231 5.14649 7.49998C5.06261 7.29765 5.01944 7.08078 5.01944 6.86175C5.01944 6.64273 5.06261 6.42585 5.14649 6.22352C5.23036 6.02119 5.35329 5.83737 5.50825 5.68258C5.66304 5.52762 5.84685 5.40469 6.04918 5.32082C6.25151 5.23694 6.46839 5.19377 6.68742 5.19377C6.90644 5.19377 7.12332 5.23694 7.32565 5.32082C7.52798 5.40469 7.7118 5.52762 7.86658 5.68258L7.91658 5.73258C8.11298 5.9247 8.36243 6.05357 8.63276 6.10259C8.90309 6.1516 9.1819 6.11851 9.43325 6.00758H9.49992C9.74639 5.90195 9.9566 5.72655 10.1047 5.50297C10.2527 5.2794 10.3322 5.01741 10.3333 4.74925V4.60758C10.3333 4.16556 10.5088 3.74163 10.8214 3.42907C11.134 3.11651 11.5579 2.94092 11.9999 2.94092C12.4419 2.94092 12.8659 3.11651 13.1784 3.42907C13.491 3.74163 13.6666 4.16556 13.6666 4.60758V4.68258C13.6677 4.95074 13.7471 5.21273 13.8952 5.43631C14.0432 5.65988 14.2534 5.83528 14.4999 5.94092C14.7513 6.05185 15.0301 6.08494 15.3004 6.03592C15.5707 5.98691 15.8202 5.85803 16.0166 5.66592L16.0666 5.61592C16.2214 5.46096 16.4052 5.33803 16.6075 5.25415C16.8098 5.17028 17.0267 5.12711 17.2458 5.12711C17.4648 5.12711 17.6817 5.17028 17.884 5.25415C18.0863 5.33803 18.2701 5.46096 18.4249 5.61592C18.5799 5.77071 18.7028 5.95452 18.7867 6.15685C18.8706 6.35918 18.9137 6.57606 18.9137 6.79508C18.9137 7.01411 18.8706 7.23099 18.7867 7.43332C18.7028 7.63565 18.5799 7.81946 18.4249 7.97425L18.3749 8.02425C18.1828 8.22065 18.0539 8.4701 18.0049 8.74043C17.9559 9.01076 17.989 9.28957 18.0999 9.54092V9.60758C18.2056 9.85406 18.381 10.0643 18.6045 10.2123C18.8281 10.3604 19.0901 10.4398 19.3583 10.4409H19.4999C19.9419 10.4409 20.3659 10.6165 20.6784 10.9291C20.991 11.2416 21.1666 11.6656 21.1666 12.1076C21.1666 12.5496 20.991 12.9735 20.6784 13.2861C20.3659 13.5987 19.9419 13.7743 19.4999 13.7743H19.4249C19.1568 13.7753 18.8948 13.8548 18.6712 14.0028C18.4476 14.1509 18.2722 14.3611 18.1666 14.6076Z" stroke="stroke" stroke-width="1.25" stroke-linecap="round" stroke-linejoin="round"/>
</svg>
