<svg width="24" height="24" viewBox="0 0 24 24" fill="none" xmlns="http://www.w3.org/2000/svg">
<path d="M15.333 19.5V17.8333C15.333 16.9493 14.9818 16.1014 14.3567 15.4763C13.7316 14.8512 12.8837 14.5 11.9997 14.5H6.16634C5.28229 14.5 4.43444 14.8512 3.80932 15.4763C3.1842 16.1014 2.83301 16.9493 2.83301 17.8333V19.5" stroke="stroke" stroke-width="1.25" stroke-linecap="round" stroke-linejoin="round"/>
<path d="M9.08333 11.1667C10.9243 11.1667 12.4167 9.67428 12.4167 7.83333C12.4167 5.99238 10.9243 4.5 9.08333 4.5C7.24238 4.5 5.75 5.99238 5.75 7.83333C5.75 9.67428 7.24238 11.1667 9.08333 11.1667Z" stroke="stroke" stroke-width="1.25" stroke-linecap="round" stroke-linejoin="round"/>
<path d="M18.667 8.66675V13.6667" stroke="stroke" stroke-width="1.25" stroke-linecap="round" stroke-linejoin="round"/>
<path d="M21.167 11.1665H16.167" stroke="stroke" stroke-width="1.25" stroke-linecap="round" stroke-linejoin="round"/>
</svg>
